<?xml version="1.0" ?><!DOCTYPE svg  PUBLIC '-//W3C//DTD SVG 1.1//EN'  'http://www.w3.org/Graphics/SVG/1.1/DTD/svg11.dtd'><svg enable-background="new 0 0 50 50" id="Layer_1" version="1.1" viewBox="0 0 50 50" xml:space="preserve" xmlns="http://www.w3.org/2000/svg" xmlns:xlink="http://www.w3.org/1999/xlink"><path d="M45,1H5C2.8,1,1,2.8,1,5v40c0,2.2,1.8,4,4,4h40c2.2,0,4-1.8,4-4V5C49,2.8,47.2,1,45,1z" fill="#DBDBDB"/><g id="Apple_1_"><path d="M33.1,26c0-3.8,2.9-5.9,3-6c-1.8-2.6-4-3-5-3c-2.3-0.2-4.8,2-6,2c-1.2,0-3.1-2-5-2c-2.5,0-4.7,1.7-6,4   c-2.6,4.6-0.6,11.3,2,15c1.3,1.8,3,4,5,4c2,0,1.7-1,4-1s3,1,5,1c2,0,3.8-1.2,5-3c1.4-2.1,2-4.9,2-5C37.1,32,33.2,30.5,33.1,26" fill="#FFFFFF"/><path d="M29.1,15c1-1.3,2.2-3.2,2-5c-1.5,0.1-3.3,1-4.4,2.3c-1,1.1-1.8,3-1.6,4.7C26.8,17.1,28.1,16.3,29.1,15" fill="#FFFFFF"/></g></svg>